<?xml version="1.0" standalone="no"?>
<!DOCTYPE svg PUBLIC "-//W3C//DTD SVG 20010904//EN"
 "http://www.w3.org/TR/2001/REC-SVG-20010904/DTD/svg10.dtd">
<svg version="1.0" xmlns="http://www.w3.org/2000/svg"
 width="8334.000000pt" height="8334.000000pt" viewBox="0 0 8334.000000 8334.000000"
 preserveAspectRatio="xMidYMid meet">

<g transform="translate(0.000000,8334.000000) scale(0.100000,-0.100000)"
fill="#000000" stroke="none">
<path d="M33999 72166 c-2 -2 -58 -6 -124 -10 -126 -7 -364 -35 -525 -62 -907
-150 -1784 -517 -2485 -1038 -370 -276 -759 -663 -1012 -1006 -277 -376 -464
-728 -629 -1182 -181 -500 -266 -962 -281 -1523 -23 -905 194 -1875 631 -2819
117 -253 365 -666 565 -941 384 -529 914 -1059 1444 -1444 48 -35 87 -67 87
-71 0 -4 -51 -91 -114 -192 -1078 -1744 -1933 -3837 -2486 -6089 -80 -326
-173 -742 -224 -1007 -33 -165 -41 -190 -82 -265 -57 -101 -195 -400 -281
-607 -357 -858 -569 -1752 -624 -2640 -11 -175 -7 -886 5 -970 3 -19 10 -93
16 -165 66 -758 283 -1575 619 -2329 39 -88 69 -161 67 -163 -6 -6 -563 574
-780 811 -490 537 -888 1011 -1695 2021 -963 1205 -1244 1540 -1696 2025 -190
203 -578 589 -750 746 -346 315 -796 614 -1195 794 -1093 493 -2252 516 -3337
64 -248 -103 -386 -177 -618 -329 -996 -655 -1686 -1771 -1899 -3072 -178
-1088 -37 -2248 424 -3489 802 -2153 2594 -4552 4931 -6600 2112 -1850 4605
-3351 7289 -4389 897 -347 2014 -706 2833 -911 88 -22 108 -30 104 -43 -3 -9
-61 -135 -130 -281 -569 -1209 -1077 -2595 -1342 -3660 -598 -2406 -578 -4854
57 -6755 52 -157 63 -203 84 -360 423 -3141 1062 -6621 1815 -9890 66 -286
121 -527 122 -536 1 -11 -39 -37 -133 -85 -278 -144 -514 -311 -722 -513 -405
-391 -621 -791 -698 -1289 -42 -269 -36 -575 15 -857 124 -673 515 -1173 1100
-1408 248 -99 484 -148 804 -167 215 -13 4347 -13 4621 0 519 23 915 97 1315
244 144 53 422 193 550 276 646 423 1040 1084 1175 1970 103 678 94 1962 -30
4080 -26 439 -68 1124 -75 1215 -5 63 -84 1303 -101 1581 l-7 111 349 7 c323
6 794 28 890 41 l42 6 11 -63 c116 -634 276 -1692 507 -3348 146 -1052 211
-1506 249 -1725 19 -110 64 -387 100 -615 105 -666 165 -1001 237 -1310 178
-773 391 -1293 701 -1710 93 -125 338 -368 452 -449 307 -216 611 -332 1030
-393 72 -10 671 -13 3045 -13 l2955 0 95 24 c375 94 678 306 885 621 211 319
347 699 401 1117 11 86 17 201 17 348 0 619 -152 1087 -486 1500 -93 115 -285
299 -406 389 -130 96 -304 200 -465 276 l-124 59 -6 63 c-3 35 -20 270 -36
523 -66 1011 -150 2184 -245 3430 -58 754 -153 1942 -161 2019 -5 48 -4 58 7
53 524 -224 1007 -372 1530 -471 241 -45 532 -86 724 -101 44 -4 96 -8 116
-11 113 -12 558 -24 699 -19 476 17 793 52 1170 126 1241 245 2230 823 2757
1612 135 203 257 477 318 716 51 203 53 236 48 796 -5 453 5 1005 22 1230 3
33 9 121 15 195 41 537 120 1030 345 2155 135 670 199 1026 230 1270 9 71 17
130 18 131 1 1 50 16 109 33 59 17 131 43 160 56 29 14 63 25 75 25 46 0 292
70 399 113 971 392 1599 1578 1878 3547 162 1146 94 2060 -206 2760 -231 540
-628 963 -1159 1233 -212 108 -392 172 -617 221 -63 13 -115 26 -117 28 -15
14 258 1372 516 2564 l82 381 156 69 c478 209 1047 542 1464 857 65 49 120 87
121 85 1 -1 13 -32 25 -68 36 -102 143 -316 208 -415 283 -429 714 -723 1307
-890 262 -74 461 -109 951 -170 507 -63 568 -76 809 -170 369 -143 706 -349
1045 -639 139 -118 346 -327 446 -451 141 -173 162 -194 223 -211 124 -36 251
27 291 145 19 59 12 126 -33 303 -187 732 -558 1491 -1021 2093 -682 885
-1512 1407 -2452 1541 -60 8 -214 18 -344 21 -253 6 -418 -4 -617 -38 -63 -10
-116 -19 -118 -19 -3 0 55 51 128 112 408 346 779 743 1117 1197 244 328 349
513 745 1321 412 839 605 1110 1147 1615 81 75 99 111 99 196 0 50 -36 133
-71 166 -13 12 -44 31 -69 42 -88 40 -465 23 -778 -35 -1042 -191 -1984 -766
-2735 -1668 -406 -488 -657 -917 -805 -1376 -80 -249 -119 -473 -129 -735 -10
-301 31 -599 123 -872 25 -75 41 -139 37 -143 -24 -22 -957 -420 -984 -420 -5
0 -6 6 -3 13 2 7 6 375 8 818 2 625 7 854 20 1029 52 715 110 1088 356 2320
77 382 156 790 175 905 20 116 43 238 51 273 46 197 58 512 28 724 -52 378
-210 780 -439 1123 -246 367 -649 761 -1060 1035 -44 29 -82 55 -85 57 -3 3
-10 66 -15 141 -10 127 -9 145 12 247 288 1393 444 2691 494 4105 13 360 7
1339 -10 1660 -36 679 -89 1240 -172 1819 -22 156 -37 287 -32 291 4 4 62 19
128 34 878 195 1763 599 2471 1128 399 299 812 703 1161 1140 594 743 993
1578 1147 2398 110 589 109 1200 -5 1765 -265 1325 -1134 2566 -2359 3368
-194 126 -371 228 -612 348 -668 334 -1285 516 -1936 570 -182 15 -623 7 -792
-15 -1033 -134 -2099 -643 -3055 -1461 -230 -196 -650 -613 -756 -748 -12 -16
-27 -26 -34 -24 -6 3 -92 70 -191 149 -649 519 -1358 988 -2137 1414 -318 174
-945 573 -1307 832 -349 250 -575 437 -796 657 -271 270 -462 528 -600 810
-158 324 -228 593 -255 977 -10 153 -8 238 12 508 11 140 11 147 -11 204 -27
72 -98 147 -168 179 -34 16 -67 21 -122 22 -66 0 -88 -5 -180 -43 -754 -310
-1355 -830 -1657 -1433 l-69 -136 -64 59 c-183 168 -415 333 -599 427 -53 27
-161 76 -241 109 -453 189 -884 291 -1670 397 -146 20 -324 47 -396 60 -702
128 -1263 355 -1710 690 -160 121 -261 218 -275 266 -42 139 -223 207 -358
134 -31 -17 -64 -45 -78 -66 -58 -87 -149 -365 -189 -578 -32 -167 -44 -501
-25 -672 48 -413 196 -828 416 -1164 36 -54 64 -99 62 -100 -1 -1 -81 -9 -177
-19 -814 -81 -1733 -255 -2477 -469 l-152 -44 -22 61 c-175 482 -330 836 -514
1176 -793 1463 -1901 2409 -3204 2734 -290 72 -530 107 -876 126 -179 9 -687
14 -696 6z m831 -690 c585 -64 1130 -237 1534 -486 44 -28 90 -56 101 -63 288
-177 540 -382 805 -653 336 -344 614 -722 907 -1234 54 -94 131 -239 142 -265
2 -5 -33 39 -79 100 -647 861 -1397 1428 -2277 1724 -334 112 -707 183 -1103
211 -190 13 -678 13 -872 -1 -1034 -71 -2013 -400 -2818 -948 -417 -284 -803
-648 -1119 -1055 -67 -86 -244 -349 -296 -438 -21 -37 -41 -66 -43 -63 -8 8
101 343 160 489 458 1140 1459 2027 2768 2454 440 144 802 209 1360 246 134 9
693 -4 830 -18z m7583 -1359 c531 -342 1245 -587 2022 -692 844 -114 1205
-192 1580 -342 481 -191 776 -423 1091 -859 223 -307 523 -601 812 -794 88
-59 308 -180 326 -180 4 0 -20 33 -53 73 -189 233 -339 531 -437 870 -41 138
-41 193 -5 348 110 466 400 844 911 1188 94 63 137 87 142 78 4 -7 8 -48 8
-92 1 -226 71 -593 164 -862 76 -217 156 -387 280 -593 336 -560 876 -1088
1651 -1612 209 -142 383 -253 1113 -710 888 -556 1315 -835 1722 -1126 313
-224 687 -513 645 -498 -25 9 -25 9 115 -110 320 -271 876 -811 1137 -1104
1425 -1600 2398 -3565 2912 -5881 202 -909 344 -1972 386 -2899 3 -74 8 -162
11 -195 13 -155 16 -1174 5 -1487 -7 -186 -14 -354 -16 -375 -2 -21 -6 -99
-10 -173 -35 -761 -165 -1849 -331 -2755 -48 -264 -162 -825 -169 -833 -1 -1
-60 23 -131 54 -434 189 -972 361 -1443 460 l-84 18 7 65 c3 37 10 111 15 166
47 485 5 1024 -116 1510 -257 1029 -742 1974 -1397 2720 -131 149 -452 462
-606 591 -930 777 -2008 1231 -3265 1376 -165 19 -616 16 -798 -6 -803 -94
-1519 -396 -2176 -919 -140 -112 -447 -413 -562 -552 -640 -771 -997 -1737
-1026 -2780 -28 -1018 318 -1710 1122 -2240 172 -113 349 -212 755 -420 455
-233 898 -483 1445 -813 336 -203 840 -514 853 -527 11 -10 7 -27 -21 -96 -83
-200 -144 -433 -171 -644 -27 -214 -49 -597 -61 -1065 -3 -124 -7 -301 -10
-395 -3 -93 -7 -255 -10 -360 -3 -104 -7 -233 -10 -285 -3 -52 -7 -147 -10
-210 -33 -698 -99 -1232 -236 -1905 -71 -348 -222 -995 -264 -1125 -20 -65
-38 -283 -55 -700 -6 -134 -12 -246 -15 -248 -6 -6 -404 -40 -665 -56 -551
-35 -773 -41 -1610 -41 -1019 0 -1363 11 -2965 95 -418 22 -841 42 -940 46
-275 8 -531 39 -1050 125 -526 87 -1286 237 -1905 375 -573 128 -1272 312
-1392 367 -62 28 -534 206 -1378 520 -1808 672 -2629 1006 -3537 1436 -1606
760 -2924 1649 -3908 2636 -496 497 -894 997 -1237 1555 -809 1316 -1150 2766
-998 4241 93 903 368 1812 816 2695 112 221 99 177 189 614 110 529 283 1214
456 1805 1018 3469 2701 6303 4924 8290 1397 1248 3094 2137 5035 2639 825
213 1779 363 2605 411 55 3 122 8 148 11 45 6 53 3 118 -40 101 -68 418 -229
539 -274 58 -22 157 -56 220 -76 63 -20 121 -39 128 -41 6 -2 12 -3 12 0 0 2
-60 52 -132 111 -403 327 -647 582 -850 888 -293 444 -427 889 -454 1509 -4
86 -4 157 0 157 3 0 43 -24 89 -53z m17068 -3661 c777 -94 1641 -459 2359
-995 369 -276 749 -654 1021 -1016 488 -649 781 -1383 849 -2130 22 -239 11
-673 -22 -900 l-12 -80 -13 98 c-76 594 -283 1199 -596 1742 -665 1155 -1797
2055 -3178 2530 -1096 376 -2183 312 -3309 -194 -130 -59 -370 -183 -505 -261
-189 -109 -188 -112 -10 31 891 717 1845 1124 2795 1193 112 8 499 -3 621 -18z
m-9323 -13652 c31 -8 95 -33 142 -56 70 -34 102 -59 181 -137 135 -135 209
-269 261 -478 20 -76 23 -114 23 -288 0 -184 -2 -208 -27 -306 -65 -255 -166
-439 -332 -605 -111 -110 -225 -183 -356 -226 -87 -29 -106 -32 -225 -32 -113
0 -140 4 -208 26 -288 96 -499 370 -563 728 -17 100 -20 316 -4 415 80 512
421 910 835 974 73 12 196 5 273 -15z m-30038 -144 c129 -37 244 -103 335
-195 168 -167 244 -361 232 -589 -6 -128 -25 -197 -84 -316 -39 -79 -63 -111
-138 -186 -147 -149 -303 -220 -505 -231 -233 -12 -428 63 -595 232 -297 298
-295 777 3 1082 193 197 488 277 752 203z m2035 -135 c532 -113 791 -702 511
-1163 -145 -239 -431 -388 -706 -368 -335 24 -609 247 -702 572 -32 112 -32
286 0 398 67 236 233 426 450 515 61 25 94 34 197 55 48 9 186 4 250 -9z
m-3495 -1376 c215 -54 404 -206 500 -404 54 -111 71 -182 77 -315 5 -98 2
-130 -17 -205 -68 -275 -248 -470 -515 -561 -115 -39 -295 -45 -415 -15 -173
42 -345 155 -444 289 -221 301 -197 717 56 987 199 214 473 294 758 224z
m2743 -404 c769 -101 1404 -643 1622 -1385 124 -422 107 -846 -51 -1258 -225
-587 -725 -1030 -1339 -1187 -182 -46 -293 -60 -495 -59 -190 1 -355 23 -518
70 -716 208 -1234 769 -1387 1504 -32 154 -44 429 -26 585 43 366 172 688 392
981 305 406 795 686 1319 753 109 14 362 12 483 -4z m34487 -2219 c611 -61
1154 -188 1690 -393 1059 -406 1877 -1062 2241 -1796 234 -472 262 -944 83
-1424 -130 -351 -356 -695 -792 -1203 -87 -102 -119 -146 -108 -148 25 -5 220
46 326 85 118 44 221 93 327 155 88 52 95 54 88 36 -9 -26 -107 -539 -145
-763 -151 -889 -192 -1443 -190 -2565 l2 -595 -26 -103 c-124 -493 -445 -908
-976 -1257 -887 -585 -2200 -842 -3545 -694 -1296 143 -2435 612 -3217 1326
-415 378 -699 837 -788 1271 -25 126 -41 316 -34 407 3 39 37 196 75 350 247
1006 367 1706 423 2465 25 333 56 1021 56 1237 l0 74 83 -75 c80 -74 199 -168
204 -162 2 1 -19 61 -46 132 -99 263 -163 489 -201 709 -22 123 -22 128 -4
435 10 183 35 404 55 499 25 113 51 186 109 300 329 655 1047 1179 2017 1472
451 136 782 195 1353 242 123 11 786 -2 940 -17z m8607 -4058 c-246 -306 -423
-600 -694 -1148 -315 -640 -347 -703 -435 -857 -298 -522 -796 -1104 -1336
-1561 -136 -114 -440 -347 -447 -340 -10 10 124 463 171 574 8 18 14 36 15 39
0 2 18 49 40 102 88 212 354 728 369 718 4 -2 7 1 7 8 0 13 51 98 152 252 36
55 70 109 77 121 19 35 192 273 298 409 136 176 317 391 488 582 148 165 628
650 853 863 138 130 112 112 -130 -90 -688 -573 -1242 -1140 -1723 -1762 -37
-47 -71 -84 -76 -80 -5 3 -6 0 -2 -6 8 -14 -42 -84 -55 -76 -5 3 -6 -3 -2 -12
4 -10 2 -15 -4 -11 -5 3 -10 1 -10 -6 0 -7 -15 -34 -34 -61 -19 -26 -38 -55
-44 -64 -5 -8 -39 -61 -75 -116 -76 -120 -230 -386 -230 -398 0 -5 -5 -6 -12
-2 -7 4 -8 3 -4 -4 4 -6 -20 -64 -53 -129 -66 -132 -106 -219 -141 -308 -13
-33 -26 -64 -30 -70 -4 -5 -20 -50 -35 -98 -19 -60 -31 -84 -37 -74 -4 8 -13
82 -19 163 -36 460 103 980 385 1444 215 352 565 782 862 1055 558 515 1139
838 1819 1011 192 48 188 51 92 -68z m-1242 -4477 c973 -147 1817 -786 2463
-1866 73 -123 312 -587 312 -607 0 -4 -46 28 -102 70 -338 257 -711 457 -1100
591 -205 70 -306 88 -862 157 -595 72 -893 147 -1201 299 -183 91 -310 179
-436 305 -139 137 -239 279 -318 452 -51 111 -57 130 -36 122 8 -4 40 -58 70
-122 156 -328 380 -554 715 -722 317 -160 597 -227 1315 -315 204 -25 424 -57
490 -70 366 -74 838 -292 1260 -581 l110 -75 -65 61 c-359 338 -600 526 -822
641 -179 91 -308 130 -808 243 -674 152 -956 259 -1097 420 -45 51 -63 101
-63 172 0 96 -7 92 138 77 339 -34 566 -81 839 -174 584 -199 1096 -526 1428
-910 49 -57 107 -125 128 -149 33 -39 36 -41 20 -12 -50 92 -219 299 -358 438
-268 269 -535 460 -893 638 -425 212 -672 288 -1257 387 -120 20 -132 24 -157
53 -82 94 -91 205 -22 268 42 37 126 69 226 85 118 20 123 17 -107 50 -99 14
-191 18 -385 18 -274 -1 -371 -11 -583 -61 -100 -24 -154 -26 -131 -5 29 28
405 112 584 130 58 6 121 13 140 15 87 10 442 -5 565 -23z m-2005 -175 c-8 -7
-80 -62 -160 -121 -193 -144 -501 -347 -735 -484 -200 -118 -463 -256 -472
-248 -4 5 53 317 60 323 1 2 63 25 137 52 258 95 630 250 1020 425 150 68 175
77 150 53z m-11106 -763 c-4 -247 -8 -450 -10 -451 -1 -2 -112 66 -246 151
-384 244 -781 484 -1041 629 l-112 63 365 7 c422 7 1025 34 1048 47 1 0 -1
-200 -4 -446z m722 40 c187 -227 489 -506 764 -706 1086 -789 2584 -1223 4120
-1194 338 7 462 15 753 52 657 83 1248 254 1782 515 278 136 487 263 693 422
56 43 102 77 102 75 0 -2 -39 -184 -86 -403 -173 -809 -305 -1455 -399 -1959
-31 -165 -60 -324 -66 -352 l-10 -53 -70 0 c-347 0 -787 -95 -1097 -236 -83
-38 -86 -39 -76 -22 4 7 3 8 -5 4 -6 -4 -9 -11 -6 -15 2 -5 -15 -17 -38 -27
-23 -10 -75 -38 -115 -61 -40 -24 -75 -43 -78 -43 -3 0 -12 -7 -21 -15 -8 -8
-19 -12 -25 -9 -7 4 -8 2 -4 -4 4 -7 3 -12 -3 -12 -5 0 -23 -12 -40 -26 -17
-14 -35 -23 -41 -19 -6 4 -9 2 -8 -3 5 -14 -60 -64 -73 -56 -7 4 -9 3 -6 -3 3
-5 -35 -45 -85 -89 -179 -156 -363 -382 -504 -619 -11 -19 -24 -32 -29 -28 -4
5 -5 3 -1 -4 4 -7 -11 -45 -33 -85 -80 -146 -194 -455 -281 -758 -23 -80 -44
-152 -47 -160 -3 -8 -7 -22 -9 -30 -7 -34 -66 -276 -71 -290 -3 -8 -8 -30 -10
-49 -2 -19 -12 -70 -22 -115 -11 -45 -24 -115 -31 -156 -7 -41 -16 -80 -21
-86 -5 -6 -6 -13 -3 -16 2 -3 -4 -59 -15 -124 -27 -158 -69 -495 -76 -619 -4
-55 -9 -107 -12 -115 -13 -35 -15 -744 -3 -922 7 -100 14 -201 16 -223 1 -22
4 -47 7 -55 3 -8 11 -55 17 -105 40 -309 142 -655 265 -902 37 -73 65 -134 64
-135 -2 -2 9 -16 24 -32 15 -16 27 -33 27 -39 0 -5 9 -19 20 -31 45 -48 119
-159 113 -169 -3 -5 -1 -7 4 -4 6 4 28 -15 49 -41 21 -26 85 -95 142 -154 66
-68 101 -111 96 -119 -4 -8 -3 -10 4 -5 7 4 43 -20 84 -56 135 -116 250 -200
432 -313 63 -38 335 -177 441 -225 28 -12 77 -35 110 -50 33 -15 89 -40 125
-55 89 -37 185 -86 311 -157 l107 -60 -5 -82 c-13 -227 -21 -286 -47 -329 -60
-104 -246 -245 -472 -359 -453 -230 -1043 -374 -1819 -444 -242 -22 -994 -30
-1278 -15 -1483 82 -2788 364 -3747 810 -428 199 -800 447 -1025 682 -137 143
-215 272 -215 356 0 103 162 947 409 2133 269 1294 487 2376 565 2800 116 639
208 1402 265 2210 12 157 23 317 26 355 4 59 21 379 40 770 2 55 7 179 10 275
3 96 8 211 10 255 3 44 7 213 10 375 3 162 8 336 10 385 2 50 7 357 11 683 4
325 8 592 9 592 1 0 42 -48 91 -107z m-18039 -3845 c211 -218 497 -431 868
-648 290 -169 813 -418 1229 -585 1621 -649 3819 -1135 6256 -1385 945 -96
1802 -152 2940 -192 512 -18 2190 -17 2765 2 253 8 485 14 514 15 l55 0 104
-120 c111 -127 460 -545 652 -780 225 -276 560 -673 709 -842 l151 -173 29
-137 29 -138 -89 -439 c-175 -864 -242 -1234 -264 -1466 -27 -295 -42 -624
-60 -1370 -25 -1035 -71 -1638 -171 -2235 -67 -402 -185 -958 -305 -1437 -71
-282 -71 -284 -77 -450 -17 -560 178 -1115 576 -1643 l60 -80 -31 -6 c-18 -4
-93 -10 -167 -13 -431 -21 -760 -49 -1065 -92 -323 -45 -464 -74 -1160 -233
-170 -39 -566 -129 -880 -200 -719 -163 -1058 -243 -1405 -332 -884 -226
-1456 -427 -1733 -608 l-78 -51 -61 21 c-59 19 -83 21 -438 20 -206 0 -779 -4
-1272 -8 -1188 -12 -1574 -3 -2233 48 -836 64 -1821 215 -2477 380 -348 87
-948 315 -1353 513 -303 149 -544 293 -653 391 -26 23 -96 84 -157 134 -782
656 -1408 1493 -1842 2459 -434 968 -702 2154 -768 3397 -4 66 -8 140 -11 165
-19 213 -11 1219 11 1455 2 22 7 92 10 155 20 380 88 1013 146 1380 222 1393
633 2837 1279 4495 135 346 282 705 289 705 4 0 39 -33 78 -72z m16645 -7951
c931 -747 2700 -1271 4718 -1397 618 -39 1357 -25 1865 36 655 78 1250 237
1668 446 59 29 97 43 97 36 0 -7 -38 -204 -85 -438 -221 -1096 -315 -1746
-340 -2345 -4 -82 -9 -161 -12 -175 -3 -14 -7 -367 -8 -785 -3 -745 -4 -762
-25 -855 -77 -328 -253 -631 -525 -905 -594 -598 -1583 -983 -2755 -1075 -915
-71 -1957 70 -2805 380 -1085 396 -1885 1010 -2260 1733 -146 283 -214 550
-215 845 0 128 2 142 50 330 180 702 330 1465 394 2002 35 292 67 696 81 1025
4 83 8 168 10 190 2 21 9 263 16 537 7 274 16 498 20 498 5 0 54 -37 111 -83z"/>
<path d="M39945 62869 c-374 -48 -805 -260 -1240 -610 -181 -146 -198 -161
-405 -369 -270 -269 -477 -526 -612 -761 l-27 -46 437 5 c482 5 736 -4 1242
-45 275 -23 384 -27 710 -27 325 0 397 3 459 17 314 71 562 360 632 737 20
104 15 311 -10 402 -63 240 -257 456 -536 596 -189 95 -418 130 -650 101z"/>
<path d="M51392 60540 c-159 -22 -361 -95 -469 -168 -135 -92 -248 -249 -309
-431 -44 -131 -58 -236 -51 -389 10 -243 88 -428 241 -575 63 -60 137 -104
295 -177 278 -129 396 -174 881 -340 590 -202 882 -317 1351 -534 91 -42 169
-76 172 -76 23 0 -22 260 -82 480 -158 573 -447 1165 -767 1570 -85 107 -288
309 -377 376 -235 175 -458 260 -702 269 -66 2 -148 0 -183 -5z"/>
<path d="M36475 58333 c-431 -34 -703 -75 -1043 -159 -940 -230 -1798 -688
-2549 -1358 -159 -142 -451 -436 -578 -581 -48 -55 -101 -115 -117 -133 -57
-64 -258 -323 -323 -417 -357 -512 -627 -1157 -739 -1768 -197 -1065 -3 -2027
553 -2747 83 -108 320 -346 431 -434 248 -197 579 -377 865 -469 337 -110 604
-143 1068 -134 450 8 708 39 1932 226 937 143 1766 249 2200 280 83 6 274 20
425 31 442 31 701 70 973 144 918 253 1503 949 1797 2141 106 426 135 667 135
1120 0 434 -24 650 -115 1022 -314 1290 -1241 2379 -2440 2868 -454 185 -1078
320 -1685 365 -125 9 -688 12 -790 3z m2328 -3209 c93 -21 217 -80 292 -141
242 -196 379 -566 344 -931 -67 -717 -633 -1213 -1172 -1027 -276 95 -482 376
-543 736 -20 122 -15 362 11 476 55 250 162 456 323 625 211 221 489 319 745
262z"/>
<path d="M43025 52544 c-16 -2 -72 -9 -123 -15 -264 -30 -461 -129 -527 -263
-80 -163 27 -524 254 -862 121 -180 198 -272 390 -464 300 -299 459 -409 676
-466 135 -36 327 -39 455 -7 362 90 789 281 1060 473 231 164 428 384 482 539
58 163 -46 344 -292 509 -283 190 -886 416 -1310 492 -245 43 -454 61 -750 65
-157 2 -298 1 -315 -1z m870 -180 c390 -46 827 -192 880 -295 14 -26 13 -30
-11 -59 -36 -43 -112 -79 -201 -96 -83 -16 -299 -19 -307 -5 -3 5 -15 7 -26 4
-43 -11 -345 52 -377 79 -8 6 -26 12 -41 13 -45 4 -171 62 -259 121 -86 57
-127 99 -119 121 3 7 0 12 -6 10 -6 -1 -16 13 -21 30 -16 54 20 81 123 90 30
3 57 7 59 9 6 6 162 -5 306 -22z"/>
<path d="M44730 52096 c0 -2 8 -10 18 -17 15 -13 16 -12 3 4 -13 16 -21 21
-21 13z"/>
<path d="M44736 52048 c3 -5 10 -6 15 -3 13 9 11 12 -6 12 -8 0 -12 -4 -9 -9z"/>
<path d="M45885 48387 c-58 -15 -147 -58 -152 -73 -2 -6 22 -30 54 -54 32 -24
109 -84 171 -133 l112 -89 -22 -40 c-79 -141 -298 -380 -438 -480 -252 -179
-577 -290 -931 -318 -492 -39 -1038 137 -1436 462 -93 76 -235 217 -288 287
-21 28 -40 49 -43 47 -4 -5 60 -161 98 -236 87 -172 287 -415 445 -539 286
-226 618 -362 1005 -411 121 -15 422 -13 547 5 231 33 409 87 618 191 83 41
193 105 245 142 176 125 373 339 470 510 19 34 38 62 42 62 4 0 34 -35 67 -77
32 -43 73 -94 89 -113 l30 -35 27 59 c38 86 48 147 43 265 -6 124 -28 191 -95
293 -76 116 -194 206 -335 255 -87 31 -242 40 -323 20z"/>
<path d="M54800 48174 c-25 -2 -108 -8 -185 -14 -873 -68 -1651 -343 -2147
-759 -279 -234 -465 -531 -534 -851 -46 -217 -19 -531 64 -740 216 -546 770
-1058 1524 -1407 639 -296 1331 -466 2168 -534 187 -15 725 -15 905 0 700 59
1247 198 1715 436 555 283 905 667 1022 1125 38 149 49 363 24 510 -58 355
-234 670 -550 985 -663 660 -1758 1098 -3076 1231 -145 14 -816 28 -930 18z
m730 -475 c406 -31 749 -86 1102 -175 951 -241 1729 -695 2078 -1213 60 -90
136 -254 161 -347 30 -114 36 -269 15 -374 -31 -153 -102 -293 -218 -429 -351
-413 -1033 -700 -1888 -795 -370 -41 -866 -46 -1220 -11 -591 58 -1181 202
-1660 404 -399 170 -815 425 -1046 644 -137 129 -334 378 -334 422 0 22 216
231 318 308 443 333 1041 546 1792 636 272 33 498 45 827 46 138 0 251 1 250
2 -4 3 -289 42 -397 53 -376 41 -918 48 -1241 16 -649 -65 -1181 -240 -1599
-527 -99 -68 -100 -67 -80 59 74 461 524 843 1275 1085 312 100 738 176 1120
200 106 7 645 4 745 -4z"/>
<path d="M53066 43639 c3 -5 62 -47 132 -93 700 -462 1585 -741 2482 -784 203
-10 648 2 815 22 340 40 686 115 955 207 l145 49 -105 -6 c-230 -12 -1011 -11
-1250 1 -1039 55 -2051 241 -2987 550 -106 34 -190 59 -187 54z"/>
<path d="M61886 42632 c-3 -5 1 -9 9 -9 8 0 12 4 9 9 -3 4 -7 8 -9 8 -2 0 -6
-4 -9 -8z"/>
<path d="M62899 41883 c-13 -16 -12 -17 4 -4 16 13 21 21 13 21 -2 0 -10 -8
-17 -17z"/>
<path d="M62326 41251 c-4 -5 -2 -12 3 -15 5 -4 12 -2 15 3 4 5 2 12 -3 15 -5
4 -12 2 -15 -3z"/>
<path d="M21775 67263 c-609 -48 -1087 -171 -1580 -407 -1215 -583 -2090
-1740 -2319 -3066 -74 -424 -81 -888 -20 -1310 167 -1170 811 -2204 1788
-2874 1086 -745 2468 -932 3722 -505 195 66 353 133 548 231 l159 81 836 -188
c602 -135 853 -188 896 -187 128 1 247 79 303 199 21 47 26 73 26 133 0 68
-20 143 -231 860 l-231 785 97 195 c278 559 414 1099 437 1736 27 743 -168
1532 -544 2194 -374 660 -939 1222 -1607 1597 -623 350 -1355 538 -2065 531
-96 -1 -193 -3 -215 -5z m505 -685 c840 -65 1636 -437 2233 -1041 412 -417
715 -934 875 -1494 175 -608 184 -1244 27 -1848 -81 -312 -190 -577 -361 -880
-40 -71 -78 -152 -85 -178 -21 -86 -26 -67 203 -845 71 -244 128 -446 125
-448 -2 -2 -165 32 -363 76 -197 45 -479 108 -625 140 -147 33 -282 60 -301
60 -56 0 -132 -27 -225 -81 -431 -250 -881 -399 -1388 -461 -170 -20 -646 -18
-815 5 -431 59 -778 165 -1156 355 -729 367 -1323 999 -1642 1747 -258 605
-342 1239 -252 1887 146 1040 773 1979 1687 2525 606 362 1355 537 2063 481z"/>
<path d="M21134 64366 c-98 -19 -136 -32 -225 -78 -152 -78 -269 -199 -349
-363 -59 -122 -83 -227 -84 -370 -1 -132 16 -218 65 -337 61 -149 91 -182 708
-801 651 -653 641 -644 751 -634 34 3 73 14 92 25 18 12 305 294 638 629 540
543 610 616 648 684 103 185 138 403 96 607 -49 241 -219 466 -428 567 -127
62 -204 79 -356 78 -241 -2 -438 -82 -636 -259 l-74 -66 -69 64 c-84 80 -132
113 -240 168 -160 80 -383 115 -537 86z"/>
</g>
</svg>
